<?xml version="1.0" ?>
<!-- Uploaded to: SVG Repo, www.svgrepo.com, Generator: SVG Repo Mixer Tools -->
<svg width="800px" height="800px" viewBox="0 0 512 512" id="Layer_1" version="1.1" xml:space="preserve" xmlns="http://www.w3.org/2000/svg" xmlns:xlink="http://www.w3.org/1999/xlink">
<g id="_x30_8_Select_your_Item">
<g>
<g>
<g>
<g>
<g>
<path d="M4,371.921v34.532c0,8.587,6.921,15.509,15.508,15.509h472.895        c8.585,0,15.595-6.922,15.595-15.509v-34.532H4z" style="fill:#D3D9D9;"/>
</g>
</g>
<g>
<g>
<path d="M455.241,421.932h37.312c8.536,0,15.445-6.909,15.445-15.445v-34.565h-37.23v34.565        C470.767,415.022,463.857,421.932,455.241,421.932z" style="fill:#A8B2B4;"/>
</g>
</g>
<g>
<g>
<path d="M56.757,421.932H19.445C10.909,421.932,4,415.023,4,406.487v-34.565h37.23v34.565        C41.231,415.022,48.141,421.932,56.757,421.932z" style="fill:#EDEDED;"/>
</g>
</g>
<g>
<g>
<path d="M508.039,49.815v322.106H4.041V49.815c0-8.535,6.909-15.527,15.445-15.527H492.43        C500.966,34.289,508.039,41.28,508.039,49.815z" style="fill:#D4F0FC;"/>
</g>
</g>
<g>
<g>
<g>
<g>
<g>
<path d="M412.409,144.708h-26.715c-1.784,15.217-17.798,27.057-37.416,27.057           c-13.141,0-24.681-5.367-31.388-13.501v172.461h95.52V206.752l22.654,22.655l31.003-31.003L412.409,144.708z" style="fill:#FC8A8A;"/>
</g>
</g>
</g>
<g>
<g>
<g>
<path d="M284.221,299.04v31.686h128.186V206.752l22.692,22.616l30.966-30.965l-53.658-53.696           h-13.622c0.949,6.375,1.404,12.902,1.404,19.543C400.188,232.632,349.87,289.249,284.221,299.04z" style="fill:#F96364;"/>
</g>
</g>
</g>
<g>
<g>
<g>
<path d="M195.2,158.27v172.453H99.673v-123.97l-22.642,22.642l-31.002-31.002l53.645-53.685h26.722           c1.76,15.201,17.801,27.042,37.402,27.042C176.958,171.75,188.48,166.391,195.2,158.27z" style="fill:#FEDD8E;"/>
</g>
</g>
</g>
<g>
<g>
<g>
<path d="M195.2,235.996v94.727H99.673V299.04C140.036,293,174.599,269.278,195.2,235.996z" style="fill:#FDD367;"/>
</g>
</g>
</g>
</g>
<g>
<g>
<g>
<path d="M396.926,191.896l-36.136,36.135l-26.403-26.404v144.495H184.938V201.626l-26.405,26.404          l-36.09-36.135l62.496-62.584h31.137c2.078,17.736,20.787,31.536,43.565,31.536c22.866,0,41.53-13.8,43.61-31.536h31.137          L396.926,191.896z" style="fill:#BE90BE;"/>
</g>
</g>
</g>
<g>
<g>
<g>
<path d="M184.982,309.19v36.931h149.404V201.626l26.449,26.36l36.091-36.091l-62.54-62.584h-15.877          c1.106,7.431,1.636,15.038,1.636,22.778C320.145,231.79,261.498,297.779,184.982,309.19z" style="fill:#A76BA7;"/>
</g>
</g>
</g>
<path d="M468.188,196.281l-53.656-53.695c-0.563-0.563-1.324-0.879-2.121-0.879h-26.717       c-1.524,0-2.801,1.141-2.981,2.653c-0.831,7.079-5.094,13.252-11.432,17.627L336.51,127.19       c-0.563-0.563-1.324-0.879-2.121-0.879H303.25c-1.524,0-2.801,1.141-2.981,2.653c-0.004,0.036-0.015,0.07-0.019,0.105       l-37.566-22.999V92.965c8.548-1.43,15.079-8.868,15.079-17.798c0-9.969-8.11-18.079-18.079-18.079       c-9.97,0-18.08,8.11-18.08,18.079c0,1.656,1.344,3,3,3s3-1.344,3-3c0-6.661,5.418-12.079,12.079-12.079       c6.661,0,12.079,5.418,12.079,12.079c0,6.645-5.418,12.048-12.079,12.048c-1.656,0-3,1.344-3,3v15.856l-37.605,23.022       c-0.005-0.043-0.018-0.085-0.023-0.129c-0.18-1.512-1.457-2.653-2.981-2.653h-31.135c-0.797,0-1.559,0.316-2.121,0.879       l-37.359,37.41c-8.862-4.29-15.075-11.558-16.094-20.241c-0.18-1.512-1.457-2.653-2.981-2.653H99.671       c-0.797,0-1.559,0.316-2.121,0.879l-53.656,53.695c-1.172,1.172-1.172,3.071,0,4.242l31.002,31.002       c1.172,1.172,3.07,1.172,4.242,0l17.533-17.533v116.732c0,1.656,1.344,3,3,3h82.268v12.395c0,1.656,1.344,3,3,3h149.449       c1.656,0,3-1.344,3-3v-12.395h75.021c1.656,0,3-1.344,3-3V213.994l17.529,17.533c0.563,0.563,1.324,0.879,2.121,0.879       s1.559-0.316,2.121-0.879l31.006-31.002C469.36,199.352,469.36,197.453,468.188,196.281z M259.684,111.267l39.051,23.909       c-5.028,13.276-20.63,22.673-39.094,22.673c-18.433,0-34.01-9.386-39.043-22.651L259.684,111.267z M102.672,327.725V206.751       c0-1.215-0.731-2.309-1.852-2.774c-1.121-0.461-2.41-0.207-3.27,0.652l-20.533,20.533l-26.76-26.76l50.656-50.695h22.935       c1.951,8.977,8.323,16.529,17.157,21.353l-20.684,20.713c-1.172,1.172-1.172,3.071,0,4.242l36.089,36.136       c0.563,0.563,1.324,0.879,2.121,0.879s1.559-0.316,2.121-0.879l21.287-21.283v118.857H102.672z M336.51,199.504       c-0.856-0.859-2.153-1.109-3.27-0.652c-1.121,0.465-1.852,1.559-1.852,2.774v141.495H187.94V201.626       c0-1.215-0.731-2.309-1.852-2.774c-1.121-0.457-2.41-0.207-3.27,0.652l-24.287,24.283l-31.85-31.893l59.501-59.583h27.338       c3.703,18.158,22.982,31.538,46.121,31.538c23.162,0,42.456-13.38,46.164-31.538h27.342l59.536,59.583l-31.893,31.893       L336.51,199.504z M435.061,225.163l-20.529-20.533c-0.859-0.859-2.149-1.113-3.27-0.652c-1.121,0.465-1.852,1.559-1.852,2.774       v120.974h-72.021V208.868l21.279,21.283c0.563,0.563,1.324,0.879,2.121,0.879s1.559-0.316,2.121-0.879l36.136-36.136       c1.172-1.172,1.172-3.071,0-4.242l-23.499-23.516c6.481-4.747,11.078-11.169,12.682-18.549h22.939l50.656,50.695       L435.061,225.163z" style="fill:#333333;"/>
</g>
<polygon points="331.066,477.748 180.926,477.748 206.21,421.924 305.781,421.924     " style="fill:#FFFFFF;"/>
<g>
<path d="M492.401,30.253H19.509C8.75,30.253,0,39.047,0,49.852V371.92v34.534       c0,10.759,8.751,19.509,19.509,19.509h180.479l-21.645,47.785h-13.131c-2.211,0-4,1.789-4,4s1.789,4,4,4h15.712h150.14h15.716       c2.211,0,4-1.789,4-4s-1.789-4-4-4h-13.136l-21.642-47.785h180.399c10.805,0,19.599-8.751,19.599-19.509V371.92V49.852       C512,39.047,503.206,30.253,492.401,30.253z M8.001,49.852c0-6.395,5.164-11.599,11.509-11.599h472.892       c6.395,0,11.599,5.204,11.599,11.599V367.92H8.002L8.001,49.852L8.001,49.852z M324.861,473.748H187.128l21.644-47.785h94.449       L324.861,473.748z M503.999,406.454c0,6.344-5.204,11.509-11.599,11.509H306.05c-0.091-0.006-0.176-0.039-0.269-0.039h-99.57       c-0.093,0-0.178,0.033-0.269,0.039H19.509C13.165,417.962,8,412.798,8,406.454V375.92h495.999V406.454z" style="fill:#333333;"/>
</g>
</g>
</g>
<g>
<path d="M238.616,396.942c0,3.971-3.178,7.147-7.148,7.147c-3.897,0-7.145-3.176-7.145-7.147     c0-3.898,3.248-7.147,7.145-7.147C235.439,389.795,238.616,393.043,238.616,396.942z" style="fill:#7C8B8E;"/>
<path d="M263.146,396.942c0,3.971-3.178,7.147-7.148,7.147c-3.897,0-7.145-3.176-7.145-7.147     c0-3.898,3.248-7.147,7.145-7.147C259.968,389.795,263.146,393.043,263.146,396.942z" style="fill:#7C8B8E;"/>
<path d="M287.675,396.942c0,3.971-3.178,7.147-7.148,7.147c-3.897,0-7.145-3.176-7.145-7.147     c0-3.898,3.248-7.147,7.145-7.147C284.497,389.795,287.675,393.043,287.675,396.942z" style="fill:#7C8B8E;"/>
</g>
</g>
</g>
</svg>