<svg height="200px" width="200px" version="1.1" id="_x32_" xmlns="http://www.w3.org/2000/svg" xmlns:xlink="http://www.w3.org/1999/xlink" viewBox="0 0 512 512" xml:space="preserve" fill="#000000"><g id="SVGRepo_bgCarrier" stroke-width="0"></g><g id="SVGRepo_tracerCarrier" stroke-linecap="round" stroke-linejoin="round"></g><g id="SVGRepo_iconCarrier"> <style type="text/css"> .st0{fill:#ffffff;} </style> <g> <path class="st0" d="M501.578,335.805l-54.059-91.918l43.81-14.609l-49.593-68.611c13.293-11.726,23.388-25.334,30.034-40.459 c6.452-14.69,9.731-30.874,9.731-48.14c0-15.344-2.536-31.188-7.526-47.082c-3.61-11.467-7.285-18.873-7.696-19.705L463.582,0 h-5.935c-12.728,0-25.769,2.609-38.772,7.745c-14.302,5.669-28.338,14.23-41.727,25.454c-2.318,1.946-4.603,3.965-6.816,6.024 l-16.256-27.086l-8.689,10.878c-0.065,0.08-7.228,8.834-21.918,17.58c-19.559,11.645-42.268,17.557-67.472,17.565 c-14.044,0-27.522-1.996-40.048-5.92c-17.436-5.459-30.034-13.769-37.536-19.778c-4.192-3.359-7.212-6.331-9.021-8.237 c-0.961-1.009-1.671-1.817-2.1-2.325c-0.218-0.259-0.371-0.452-0.532-0.654l-8.956-11.75L141.377,38.95 c-5.62-5.216-11.645-10.11-17.92-14.553c-9.918-7.009-20.117-12.606-30.324-16.652C80.131,2.609,67.088,0,54.362,0h-5.936 l-2.713,5.306c-0.404,0.807-4.079,8.213-7.68,19.68c-4.991,15.893-7.527,31.738-7.535,47.082c0,17.25,3.272,33.441,9.74,48.14 c6.63,15.126,16.732,28.725,30.025,40.459L20.67,229.278l43.827,14.609l-54.075,91.918l87.904,1.396l-4.159,64.42l48.591-16.556 c7.228,27.692,13.519,51.014,18.728,69.379c3.755,13.276,6.945,23.944,9.473,31.705c1.454,4.466,2.681,7.954,3.747,10.66 c0.622,1.583,1.163,2.835,1.704,3.916c0.298,0.614,0.605,1.196,0.969,1.81c0.347,0.565,0.766,1.244,1.478,2.059 c1.002,1.171,2.188,2.164,3.626,3.045c2.228,1.316,4.336,1.978,6.121,2.454c2.705,0.711,5.79,1.187,9.715,1.511 c3.247,0.266,6.88,0.395,11.096,0.395c7.22,0,15.893-0.395,25.794-1.171c6.412-0.5,13.179-1.154,20.149-1.93 c6.961,0.776,13.737,1.43,20.141,1.93c9.909,0.776,18.582,1.171,25.794,1.171l0,0c6.768-0.008,11.968-0.323,16.362-0.993 c2.834-0.444,5.007-0.978,7.066-1.72c1.324-0.485,2.439-1.018,3.521-1.656c1.421-0.872,2.608-1.866,3.626-3.045 c0.702-0.816,1.122-1.494,1.486-2.068c0.719-1.227,1.268-2.43,1.76-3.553c0.937-2.164,1.97-4.894,3.238-8.592 c1.922-5.637,4.224-13.002,7.018-22.531c5.823-19.826,13.454-47.8,22.685-83.188l49.795,16.967l-4.167-64.42L501.578,335.805z M317.977,489.662c-0.242,0.63-0.476,1.188-0.678,1.648c-0.194,0.056-0.428,0.112-0.662,0.161 c-1.559,0.363-3.804,0.662-6.332,0.856c-2.576,0.178-5.604,0.283-9.012,0.283c-6.735,0-14.908-0.364-24.284-1.106 c-8.253-0.654-15.74-1.437-20.553-1.995l-1.098-0.121l-1.098,0.121c-4.837,0.558-12.316,1.341-20.561,1.986 c-9.376,0.744-17.532,1.115-24.236,1.115h-0.218c-5.362,0-10.054-0.266-13.228-0.767c-1.083-0.162-1.971-0.363-2.601-0.533 c-0.008-0.016-0.016-0.032-0.024-0.049c-0.686-1.567-1.632-4.094-2.665-7.107c-1.801-5.265-4.07-12.533-6.743-21.611 c-7.874-26.778-17.984-65.065-25.075-92.466l-2.633-10.111l-40.896,13.948l3.602-55.779l-74.975-1.196l49.342-83.866L51.858,219.24 l44.958-62.199l-7.462-5.734c-14.488-11.169-24.752-23.896-31.366-38.909c-5.371-12.202-8.092-25.769-8.092-40.33 c-0.008-16.668,3.602-31.641,6.63-41.266c1.462-4.644,2.908-8.472,4.006-11.145c8.35,0.678,16.91,2.73,25.471,6.121 c15.416,6.09,28.296,15.466,36.388,22.273c4.612,3.868,8.172,7.309,10.337,9.513c1.188,1.195,2.084,2.156,2.665,2.803l0.638,0.71 l9.206,10.724l15.942-28.556c4.967,4.466,10.474,8.649,16.426,12.429c15.651,9.982,41.953,21.886,78.464,21.886 c36.284,0,62.53-11.314,78.149-20.804c6.073-3.683,11.694-7.744,16.757-12.122l16.087,26.82l8.827-10.289 c0.759-0.864,10.11-11.354,24.558-21.433c8.592-5.999,17.346-10.748,26.02-14.132c8.398-3.279,16.805-5.274,25.002-5.944 c1.147,2.794,2.657,6.792,4.159,11.645c2.964,9.514,6.493,24.308,6.493,40.766c0,14.553-2.738,28.128-8.1,40.33 c-6.614,15.014-16.878,27.74-31.375,38.909l-7.445,5.734l44.949,62.199l-41.501,13.833l49.351,83.866l-74.975,1.196l3.594,55.779 l-42.082-14.351l-2.624,10.12c-5.702,22.022-14.02,53.654-21.28,79.286c-3.715,13.124-6.848,23.59-9.287,31.116 C320.036,484.075,318.873,487.385,317.977,489.662z"></path> <path class="st0" d="M77.232,69.992c-9.295,35.67,26.376,63.596,26.376,63.596l18.614-37.229 C106.709,77.745,77.232,69.992,77.232,69.992z"></path> <path class="st0" d="M255.996,304.592c20.157,0,36.478-16.539,36.478-25.947c0-9.392-16.321-8.924-36.478-8.924 c-7.284,0-14.052-0.049-19.761,0.307l7.478-32.739l-13.228-3.02l-9.1,39.869c-1.196,1.171-1.858,2.641-1.858,4.507 C219.526,288.053,235.855,304.592,255.996,304.592z"></path> <path class="st0" d="M209.843,225.224c0,0-13.333-11.782-31.212-20.908c-10.005-5.112-23.816-6.041-26.181,4.95 c-2.358,10.991,14.633,27.603,25.624,29.961C197.98,243.507,209.843,225.224,209.843,225.224z"></path> <path class="st0" d="M359.559,209.266c-2.366-10.991-16.168-10.062-26.19-4.95c-17.872,9.125-31.204,20.908-31.204,20.908 s11.863,18.283,31.762,14.004C344.926,236.869,361.917,220.257,359.559,209.266z"></path> <path class="st0" d="M434.768,69.992c0,0-29.468,7.753-44.982,26.367l18.606,37.229 C408.392,133.588,444.071,105.663,434.768,69.992z"></path> <path class="st0" d="M314.593,328.843c-8.092,0-46.524,0-60.697,0c-14.148,0-52.597,0-60.681,0 c-8.092,0-12.145,6.072-11.128,15.174c1.01,9.101,24.275,123.405,29.331,129.478c5.055,6.056,42.478,3.028,42.478,3.028 s37.423,3.028,42.486-3.028c5.056-6.073,28.322-120.377,29.339-129.478C326.731,334.916,322.685,328.843,314.593,328.843z M256.141,462.795v0.032c0,0-0.21-0.008-0.598-0.016c-0.38,0.008-0.598,0.016-0.598,0.016v-0.032 c-5.217-0.129-26.149-0.727-36.615-1.769c0,0,1.203-18,9.013-24.001l6,17.403c0,0,2.398-7.809,6.008-6.606 c3.586,1.195,5.394,5.992,5.394,5.992s3.594-5.395,6-5.395c1.744,0,3.812,3.174,4.797,4.902c0.993-1.728,3.053-4.902,4.805-4.902 c2.398,0,6,5.395,6,5.395s1.801-4.797,5.403-5.992c3.602-1.203,6,6.606,6,6.606l6.008-17.403c7.793,6,8.996,24.001,8.996,24.001 C282.29,462.068,261.358,462.666,256.141,462.795z M297.731,375.626l-8.98-22.402c0,0-3.586,10.038-8.98,8.496 c-5.378-1.543-8.076-7.72-8.076-7.72s-5.378,6.953-8.964,6.953c-2.616,0-5.701-4.087-7.187-6.316 c-1.486,2.229-4.563,6.316-7.171,6.316c-3.594,0-8.98-6.953-8.98-6.953s-2.698,6.177-8.076,7.72 c-5.386,1.542-8.98-8.496-8.98-8.496l-8.972,22.402c-11.661-7.729-13.462-30.897-13.462-30.897 c15.643-1.333,46.96-2.1,54.745-2.278v-0.032c0,0,0.315,0.008,0.896,0.016c0.582-0.008,0.904-0.016,0.904-0.016v0.032 c7.785,0.178,39.095,0.944,54.737,2.278C311.185,344.728,309.392,367.897,297.731,375.626z"></path> </g> </g></svg>